<svg width="100" height="100" viewBox="0 0 100 100" fill="none" xmlns="http://www.w3.org/2000/svg">
<path d="M86.0833 29.1668C85.5444 28.1853 84.7533 27.3654 83.7917 26.7918L53.2083 9.1251C52.2173 8.61014 51.1168 8.34131 50 8.34131C48.8832 8.34131 47.7827 8.61014 46.7917 9.1251L16.2083 26.7918C15.2713 27.3936 14.4914 28.2104 13.9334 29.1742C13.3754 30.1381 13.0554 31.2211 13 32.3334V67.6668C13.0302 68.7833 13.3458 69.8734 13.9167 70.8334C14.4556 71.8149 15.2467 72.6348 16.2083 73.2084L46.7917 90.8751C47.7827 91.39 48.8832 91.6589 50 91.6589C51.1168 91.6589 52.2173 91.39 53.2083 90.8751L83.7917 73.2084C84.7533 72.6348 85.5444 71.8149 86.0833 70.8334C86.6542 69.8734 86.9698 68.7833 87 67.6668V32.3334C86.9698 31.2169 86.6542 30.1268 86.0833 29.1668ZM50 74.6668C45.683 74.6475 41.4467 73.4955 37.7143 71.326C33.982 69.1566 30.8844 66.0455 28.7311 62.3039C26.5778 58.5622 25.4442 54.3209 25.4436 50.0039C25.443 45.6868 26.5754 41.4452 28.7276 37.7029C30.8799 33.9606 33.9766 30.8487 37.7083 28.6782C41.44 26.5076 45.676 25.3545 49.993 25.334C54.31 25.3134 58.5567 26.4262 62.3089 28.5612C66.0611 30.6961 69.1873 33.7784 71.375 37.5001L66.6667 40.4584L65.1667 41.2918L61 43.8334C59.6697 41.3665 57.5489 39.4183 54.9782 38.3016C52.4075 37.1849 49.5361 36.9645 46.8251 37.6759C44.1141 38.3873 41.7209 39.9891 40.0297 42.2242C38.3386 44.4593 37.4476 47.1978 37.5 50.0001C37.4882 52.1685 38.0641 54.2995 39.1667 56.1668C40.2809 58.0036 41.8497 59.5223 43.7217 60.5762C45.5937 61.6302 47.7058 62.1839 49.8542 62.1839C52.0025 62.1839 54.1146 61.6302 55.9866 60.5762C57.8587 59.5223 59.4275 58.0036 60.5417 56.1668L71.375 62.5001C69.1816 66.2151 66.0552 69.2923 62.3058 71.4265C58.5564 73.5606 54.3142 74.6777 50 74.6668ZM74.6667 51.3751H71.9167V54.1668H69.2083V51.4168H66.6667V48.6668H69.4167V45.8334H72.125V48.5834H74.875L74.6667 51.3751ZM84.9583 51.3751H82.2083V54.1668H79.4583V51.4168H76.75V48.6668H79.4583V45.8334H82.2083V48.5834H84.9583V51.3751Z" fill="white"/>
</svg>
