<svg width="17" height="9" viewBox="0 0 17 9" fill="none" xmlns="http://www.w3.org/2000/svg">
<path d="M4.512 6.768H3.216V9H0.84V0.599999H4.68C5.44 0.599999 6.1 0.727999 6.66 0.983999C7.22 1.232 7.652 1.592 7.956 2.064C8.26 2.528 8.412 3.076 8.412 3.708C8.412 4.316 8.268 4.848 7.98 5.304C7.7 5.752 7.296 6.104 6.768 6.36L8.58 9H6.036L4.512 6.768ZM6.012 3.708C6.012 3.316 5.888 3.012 5.64 2.796C5.392 2.58 5.024 2.472 4.536 2.472H3.216V4.932H4.536C5.024 4.932 5.392 4.828 5.64 4.62C5.888 4.404 6.012 4.1 6.012 3.708ZM16.4668 7.164V9H9.72281V0.599999H16.3108V2.436H12.0748V3.852H15.8068V5.628H12.0748V7.164H16.4668Z" fill="#0085FF"/>
</svg>
