<svg width="500" height="500" viewBox="0 0 500 500" fill="none" xmlns="http://www.w3.org/2000/svg">
<rect width="500" height="500" rx="40" fill="#E1E1E1"/>
<path d="M386.026 249.629L342.534 233.997L324.354 211.171C322.773 209.238 320.782 207.681 318.524 206.614C316.267 205.547 313.801 204.995 311.304 205H266.326C263.575 204.999 260.866 205.671 258.435 206.957C256.003 208.244 253.923 210.105 252.376 212.38L237.121 234.784C233.944 239.447 232.246 244.96 232.25 250.602V295C232.25 296.492 232.843 297.923 233.898 298.978C234.952 300.032 236.383 300.625 237.875 300.625H249.924C251.147 305.453 253.946 309.734 257.876 312.793C261.807 315.851 266.645 317.512 271.625 317.512C276.605 317.512 281.443 315.851 285.374 312.793C289.304 309.734 292.103 305.453 293.326 300.625H328.674C329.897 305.453 332.696 309.734 336.626 312.793C340.557 315.851 345.395 317.512 350.375 317.512C355.355 317.512 360.193 315.851 364.124 312.793C368.054 309.734 370.853 305.453 372.076 300.625H384.125C385.617 300.625 387.048 300.032 388.102 298.978C389.157 297.923 389.75 296.492 389.75 295V254.922C389.75 253.764 389.392 252.634 388.726 251.686C388.059 250.739 387.116 250.02 386.026 249.629ZM271.625 306.25C269.4 306.25 267.225 305.59 265.375 304.354C263.525 303.118 262.083 301.361 261.231 299.305C260.38 297.25 260.157 294.988 260.591 292.805C261.025 290.623 262.097 288.618 263.67 287.045C265.243 285.472 267.248 284.4 269.43 283.966C271.613 283.532 273.875 283.755 275.93 284.606C277.986 285.458 279.743 286.9 280.979 288.75C282.215 290.6 282.875 292.775 282.875 295C282.871 297.982 281.684 300.841 279.575 302.95C277.466 305.059 274.607 306.246 271.625 306.25ZM350.375 306.25C348.15 306.25 345.975 305.59 344.125 304.354C342.275 303.118 340.833 301.361 339.981 299.305C339.13 297.25 338.907 294.988 339.341 292.805C339.775 290.623 340.847 288.618 342.42 287.045C343.993 285.472 345.998 284.4 348.18 283.966C350.363 283.532 352.625 283.755 354.68 284.606C356.736 285.458 358.493 286.9 359.729 288.75C360.965 290.6 361.625 292.775 361.625 295C361.622 297.983 360.436 300.843 358.327 302.952C356.218 305.061 353.358 306.247 350.375 306.25ZM378.5 289.375H372.076C370.853 284.547 368.054 280.266 364.124 277.207C360.193 274.149 355.355 272.488 350.375 272.488C345.395 272.488 340.557 274.149 336.626 277.207C332.696 280.266 329.897 284.547 328.674 289.375H293.326C292.103 284.547 289.304 280.266 285.374 277.207C281.443 274.149 276.605 272.488 271.625 272.488C266.645 272.488 261.807 274.149 257.876 277.207C253.946 280.266 251.147 284.547 249.924 289.375H243.5V250.602C243.499 247.215 244.519 243.906 246.425 241.107L261.674 218.714C262.19 217.955 262.884 217.334 263.694 216.904C264.505 216.475 265.409 216.25 266.326 216.25H311.304C312.122 216.247 312.931 216.423 313.674 216.768C314.417 217.112 315.075 217.615 315.601 218.241L334.726 242.254C335.377 243.071 336.241 243.69 337.224 244.043L378.5 258.876V289.375Z" fill="#155086"/>
<rect x="99" y="226" width="118" height="9" rx="4.5" fill="#155086"/>
<rect x="158" y="255" width="59" height="10" rx="5" fill="#155086"/>
<rect x="188" y="285" width="29" height="9" rx="4.5" fill="#155086"/>
</svg>
