<svg width="100" height="100" viewBox="0 0 100 100" fill="none" xmlns="http://www.w3.org/2000/svg">
<path fill-rule="evenodd" clip-rule="evenodd" d="M35.0626 0C24.8668 0 16.6668 8.55416 16.6668 19.0333C16.6668 25.4042 19.7001 31.0625 24.3626 34.5167C21.9596 36.317 20.0118 38.6553 18.6754 41.3441C17.3389 44.0329 16.651 46.9974 16.6668 50C16.6668 56.375 19.7001 62.0292 24.3626 65.4833C21.9596 67.2837 20.0118 69.622 18.6754 72.3108C17.3389 74.9996 16.651 77.9641 16.6668 80.9667C16.6668 91.4458 24.8668 100 35.0626 100C45.2543 100 53.4584 91.4458 53.4584 80.9667V64.875C56.6807 67.5616 60.7423 69.0344 64.9376 69.0375C75.1334 69.0333 83.3334 60.4792 83.3334 50C83.3334 43.625 80.3043 37.9708 75.6376 34.5167C78.0406 32.7163 79.9884 30.378 81.3248 27.6892C82.6613 25.0004 83.3492 22.0359 83.3334 19.0333C83.3334 8.55416 75.1334 0 64.9376 0H35.0626ZM23.5793 19.0333C23.5793 12.4042 28.7543 7.09583 35.0626 7.09583H46.5418V30.9708H35.0626C28.7543 30.9708 23.5793 25.6583 23.5793 19.0333ZM64.9376 30.9667H53.4584V7.09167H64.9376C71.2501 7.09167 76.4209 12.4042 76.4209 19.0333C76.4209 25.6583 71.2501 30.9667 64.9376 30.9667ZM23.5834 50C23.5834 43.375 28.7584 38.0625 35.0668 38.0625H46.5459V61.9375H35.0626C28.7501 61.9375 23.5793 56.625 23.5793 50H23.5834ZM53.4584 50C53.4584 43.375 58.6334 38.0625 64.9418 38.0625C71.2543 38.0625 76.4251 43.3708 76.4251 50C76.4251 56.625 71.2543 61.9375 64.9418 61.9375C58.6334 61.9375 53.4626 56.6292 53.4626 50H53.4584ZM23.5834 80.9667C23.5834 74.3417 28.7584 69.0333 35.0668 69.0333H46.5459V80.9667C46.5459 87.5958 41.3793 92.9042 35.0668 92.9042C28.7584 92.9042 23.5834 87.5958 23.5834 80.9667Z" fill="white"/>
</svg>
