<svg width="500" height="500" viewBox="0 0 500 500" fill="none" xmlns="http://www.w3.org/2000/svg">
<rect width="500" height="500" rx="40" fill="#FFC52F"/>
<path d="M249.5 180.958C238.631 180.958 229.917 189.673 229.917 200.542C229.917 211.41 238.631 220.125 249.5 220.125C260.369 220.125 269.083 211.41 269.083 200.542C269.083 189.673 260.369 180.958 249.5 180.958ZM347.417 141.792V190.75H327.833V171.167H171.167V190.75H151.583V141.792H171.167V161.375H327.833V141.792H347.417ZM278.875 242.254V357.208H259.292V308.25H239.708V357.208H220.125V242.254C199.856 231.581 185.854 210.333 185.854 185.854V180.958H205.437V185.854C205.437 210.333 225.021 229.917 249.5 229.917C273.979 229.917 293.562 210.333 293.562 185.854V180.958H313.146V185.854C313.146 210.333 299.144 231.581 278.875 242.254Z" fill="black"/>
</svg>
