<svg width="101" height="100" viewBox="0 0 101 100" fill="none" xmlns="http://www.w3.org/2000/svg">
<path d="M49.6417 0C24.25 0 25.8333 11.0667 25.8333 11.0667L25.8625 22.5333H50.0875V25.975H16.25C16.25 25.975 0 24.1208 0 49.8708C0 75.6208 14.1792 74.7042 14.1792 74.7042H22.6375V62.7583C22.6375 62.7583 22.1833 48.5083 36.5958 48.5083H60.6208C60.6208 48.5083 74.1208 48.725 74.1208 35.3917V13.3417C74.1208 13.3417 76.1667 0 49.6375 0H49.6417ZM36.2833 7.70833C38.6917 7.70833 40.6417 9.66667 40.6417 12.0917C40.6417 14.5125 38.6917 16.4708 36.2833 16.4708C33.8708 16.4708 31.925 14.5125 31.925 12.0917C31.925 9.66667 33.8708 7.70833 36.2833 7.70833Z" fill="white"/>
<path d="M50.3626 100C75.7459 100 74.1626 88.9333 74.1626 88.9333L74.1334 77.4666H49.9084V74.025H83.7542C83.7542 74.025 100.004 75.8791 100.004 50.1291C100.004 24.3791 85.8209 25.2958 85.8209 25.2958H77.3626V37.2416C77.3626 37.2416 77.8167 51.4916 63.4042 51.4916H39.3834C39.3834 51.4916 25.8834 51.275 25.8834 64.6083V86.6583C25.8834 86.6583 23.8334 100 50.3626 100ZM63.7209 92.2916C61.3084 92.2916 59.3626 90.3333 59.3626 87.9083C59.3626 85.4875 61.3084 83.5291 63.7209 83.5291C66.1292 83.5291 68.0792 85.4875 68.0792 87.9083C68.0792 90.3333 66.1292 92.2916 63.7209 92.2916Z" fill="white"/>
</svg>
