<svg width="500" height="500" viewBox="0 0 500 500" fill="none" xmlns="http://www.w3.org/2000/svg">
<rect width="500" height="500" rx="40" fill="#00274C"/>
<path d="M271.083 166.917C269.911 165.747 268.322 165.09 266.666 165.09C265.01 165.09 263.421 165.747 262.249 166.917L179.916 249.251C178.746 250.423 178.088 252.011 178.088 253.667C178.088 255.324 178.746 256.912 179.916 258.084L188.824 266.984C193.18 264.551 198.211 263.605 203.153 264.291C208.095 264.977 212.678 267.258 216.206 270.786C219.734 274.314 222.014 278.897 222.701 283.839C223.387 288.781 222.441 293.812 220.008 298.167L228.916 307.084C229.496 307.665 230.186 308.126 230.944 308.44C231.703 308.754 232.516 308.916 233.337 308.916C234.158 308.916 234.971 308.754 235.73 308.44C236.488 308.126 237.177 307.665 237.758 307.084L320.083 224.759C321.253 223.587 321.91 221.999 321.91 220.342C321.91 218.686 321.253 217.098 320.083 215.926L311.166 207.001C306.81 209.434 301.779 210.38 296.837 209.694C291.895 209.008 287.312 206.727 283.784 203.199C280.256 199.671 277.976 195.088 277.29 190.146C276.604 185.204 277.549 180.173 279.983 175.817L271.083 166.917ZM253.416 158.084C255.157 156.343 257.224 154.962 259.499 154.02C261.774 153.077 264.212 152.592 266.674 152.592C269.137 152.592 271.575 153.077 273.85 154.02C276.125 154.962 278.192 156.343 279.933 158.084L289.691 167.851C293.949 172.101 293.191 178.076 291.041 181.684C289.859 183.675 289.374 186.002 289.662 188.299C289.95 190.596 290.995 192.731 292.632 194.368C294.269 196.005 296.404 197.05 298.701 197.338C300.998 197.626 303.326 197.141 305.316 195.959C308.924 193.817 314.899 193.051 319.149 197.309L328.916 207.084C330.657 208.825 332.038 210.892 332.981 213.167C333.923 215.442 334.408 217.88 334.408 220.342C334.408 222.805 333.923 225.243 332.981 227.518C332.038 229.793 330.657 231.86 328.916 233.601L246.599 315.917C244.858 317.659 242.791 319.04 240.516 319.982C238.241 320.924 235.803 321.409 233.341 321.409C230.879 321.409 228.44 320.924 226.166 319.982C223.891 319.04 221.824 317.659 220.083 315.917L210.316 306.159C206.066 301.909 206.816 295.926 208.966 292.326C210.148 290.335 210.633 288.008 210.345 285.711C210.057 283.414 209.012 281.279 207.375 279.642C205.738 278.005 203.603 276.96 201.306 276.672C199.009 276.384 196.681 276.869 194.691 278.051C191.083 280.192 185.108 280.951 180.858 276.692L171.083 266.926C169.342 265.185 167.96 263.118 167.018 260.843C166.076 258.568 165.591 256.13 165.591 253.667C165.591 251.205 166.076 248.767 167.018 246.492C167.96 244.217 169.342 242.15 171.083 240.409L253.416 158.084Z" fill="white"/>
<path d="M282.75 184.813C281.087 182.97 279.067 181.484 276.812 180.446C274.557 179.408 272.114 178.839 269.632 178.775C267.151 178.711 264.682 179.152 262.376 180.073C260.071 180.993 257.976 182.372 256.221 184.128L170.014 270.335C168.271 272.077 166.899 274.152 165.978 276.437C165.057 278.723 164.607 281.17 164.655 283.633C164.703 286.097 165.248 288.525 166.257 290.772C167.267 293.02 168.719 295.041 170.528 296.713L180.35 305.799C185.45 310.513 192.435 309.463 196.707 307.728C198.803 306.876 201.098 306.639 203.324 307.045C205.55 307.45 207.614 308.482 209.275 310.018C210.936 311.555 212.124 313.532 212.702 315.72C213.279 317.908 213.221 320.214 212.535 322.37C211.142 326.763 210.635 333.806 215.735 338.528L223.021 345.263C226.472 348.456 231.02 350.198 235.722 350.127C240.423 350.057 244.917 348.179 248.271 344.885L330.614 264.013C333.983 260.706 335.943 256.225 336.086 251.506C336.228 246.787 334.541 242.196 331.378 238.692L323.7 230.185C319.164 225.156 312.328 225.435 307.978 226.656C305.843 227.253 303.583 227.243 301.453 226.625C299.324 226.008 297.409 224.809 295.923 223.163C294.438 221.516 293.442 219.488 293.046 217.307C292.651 215.125 292.872 212.876 293.685 210.813C295.342 206.613 296.321 199.842 291.785 194.813L282.75 184.813V184.813Z" fill="#FFC52F"/>
</svg>
